# xmcd
#
# Track frame offsets: 
#        150
#        12917
#        35059
#        44496
#        62258
#        71245
#        89810
#        98212
#        116147
#        133294
#        151056
#        161933
#
# Disc length: 2343 seconds
#
# Revision: 3
# Processed by: cddbd v1.5.2PL0 Copyright (c) Steve Scherf et al.
# Submitted via: ExactAudioCopy v1.0b4
#
DISCID=ae09250c
DTITLE=Little Freddie King - Swamp Boogie
DYEAR=1995
DGENRE=Electric Blues, Texas Blues
TTITLE0=Cleo's Back
TTITLE1=Mean Little Woman
TTITLE2=Swamp Boogie
TTITLE3=I Use To Be Down
TTITLE4=San Ho Zay
TTITLE5=Bus Station Blues
TTITLE6=Kinky Cotton Fields
TTITLE7=Baby Got It All
TTITLE8=What'd I Say
TTITLE9=I'm Gonna Haul Right Off And Cry
TTITLE10=The Great Chinese
TTITLE11=Cat Squall Blues
EXTD=YEAR: 1996
EXTT0=
EXTT1=
EXTT2=
EXTT3=
EXTT4=
EXTT5=
EXTT6=
EXTT7=
EXTT8=
EXTT9=
EXTT10=
EXTT11=
PLAYORDER=
